{"accessors":[{"bufferView":0,"byteOffset":0,"componentType":5126,"count":1884,"max":[1.532295,1.477165,4.000295],"min":[-1.500531,-0.84606,-0.961096],"normalized":false,"type":"VEC3"},{"bufferView":1,"byteOffset":0,"componentType":5126,"count":1884,"max":[0.988969,0.994527,0.999579],"min":[-0.988969,-0.919098,-0.9918],"normalized":false,"type":"VEC3"},{"bufferView":2,"byteOffset":0,"componentType":5125,"count":11136,"max":[1883],"min":[0],"normalized":false,"type":"SCALAR"}],"asset":{"generator":"Godot Engine v4.1.1.stable.official@bd6af8e0ea69167dd0627f3bd54f9105bda0f8b5","version":"2.0"},"bufferViews":[{"buffer":0,"byteLength":22608,"byteOffset":0},{"buffer":0,"byteLength":22608,"byteOffset":22608},{"buffer":0,"byteLength":44544,"byteOffset":45216}],"buffers":[{"byteLength":89760,"uri":"quadriped0.bin"}],"materials":[{"doubleSided":true,"extensions":{},"pbrMetallicRoughness":{"baseColorFactor":[0.730460286140442,0.141263484954834,0.0561284422874451,1],"metallicFactor":0,"roughnessFactor":0.150000005960464}}],"meshes":[{"extras":{"targetNames":[]},"primitives":[{"attributes":{"NORMAL":1,"POSITION":0},"indices":2,"material":0,"mode":4}]}],"nodes":[{"extensions":{},"mesh":0,"name":"GDExample"}],"scene":0,"scenes":[{"nodes":[0]}]}