{"accessors":[{"bufferView":0,"byteOffset":0,"componentType":5126,"count":42446,"max":[10.200356,4.906762,3.233196],"min":[-10.200292,-4.90709,-4.901916],"normalized":false,"type":"VEC3"},{"bufferView":1,"byteOffset":0,"componentType":5126,"count":42446,"max":[0.999994,0.999977,0.997443],"min":[-0.999997,-0.999945,-0.999326],"normalized":false,"type":"VEC3"},{"bufferView":2,"byteOffset":0,"componentType":5125,"count":254460,"max":[42445],"min":[0],"normalized":false,"type":"SCALAR"}],"asset":{"generator":"Godot Engine v4.1.1.stable.official@bd6af8e0ea69167dd0627f3bd54f9105bda0f8b5","version":"2.0"},"bufferViews":[{"buffer":0,"byteLength":509352,"byteOffset":0},{"buffer":0,"byteLength":509352,"byteOffset":509352},{"buffer":0,"byteLength":1017840,"byteOffset":1018704}],"buffers":[{"byteLength":2036544,"uri":"test0.bin"}],"materials":[{"doubleSided":true,"extensions":{},"pbrMetallicRoughness":{"baseColorFactor":[0.730460286140442,0.141263484954834,0.0561284422874451,1],"metallicFactor":0,"roughnessFactor":0.150000005960464}}],"meshes":[{"extras":{"targetNames":[]},"primitives":[{"attributes":{"NORMAL":1,"POSITION":0},"indices":2,"material":0,"mode":4}]}],"nodes":[{"extensions":{},"mesh":0,"name":"GDExample"}],"scene":0,"scenes":[{"nodes":[0]}]}