{"accessors":[{"bufferView":0,"byteOffset":0,"componentType":5126,"count":22512,"max":[7.010416,3.773435,3.380157],"min":[-7.010416,-3.715279,-4.06618],"normalized":false,"type":"VEC3"},{"bufferView":1,"byteOffset":0,"componentType":5126,"count":22512,"max":[0.999998,0.994101,0.988496],"min":[-0.999998,-0.8044,-0.951252],"normalized":false,"type":"VEC3"},{"bufferView":2,"byteOffset":0,"componentType":5125,"count":134892,"max":[22511],"min":[0],"normalized":false,"type":"SCALAR"}],"asset":{"generator":"Godot Engine v4.1.1.stable.official@bd6af8e0ea69167dd0627f3bd54f9105bda0f8b5","version":"2.0"},"bufferViews":[{"buffer":0,"byteLength":270144,"byteOffset":0},{"buffer":0,"byteLength":270144,"byteOffset":270144},{"buffer":0,"byteLength":539568,"byteOffset":540288}],"buffers":[{"byteLength":1079856,"uri":"test30.bin"}],"materials":[{"doubleSided":true,"extensions":{},"pbrMetallicRoughness":{"baseColorFactor":[0.730460286140442,0.141263484954834,0.0561284422874451,1],"metallicFactor":0,"roughnessFactor":0.150000005960464}}],"meshes":[{"extras":{"targetNames":[]},"primitives":[{"attributes":{"NORMAL":1,"POSITION":0},"indices":2,"material":0,"mode":4}]}],"nodes":[{"extensions":{},"mesh":0,"name":"GDExample"}],"scene":0,"scenes":[{"nodes":[0]}]}