{"accessors":[{"bufferView":0,"byteOffset":0,"componentType":5126,"count":24170,"max":[5.844435,2.026731,1.960319],"min":[-5.844435,-3.712932,-5.094027],"normalized":false,"type":"VEC3"},{"bufferView":1,"byteOffset":0,"componentType":5126,"count":24170,"max":[0.999774,0.997473,0.997966],"min":[-0.999775,-0.994654,-0.999923],"normalized":false,"type":"VEC3"},{"bufferView":2,"byteOffset":0,"componentType":5125,"count":144972,"max":[24169],"min":[0],"normalized":false,"type":"SCALAR"}],"asset":{"generator":"Godot Engine v4.1.1.stable.official@bd6af8e0ea69167dd0627f3bd54f9105bda0f8b5","version":"2.0"},"bufferViews":[{"buffer":0,"byteLength":290040,"byteOffset":0},{"buffer":0,"byteLength":290040,"byteOffset":290040},{"buffer":0,"byteLength":579888,"byteOffset":580080}],"buffers":[{"byteLength":1159968,"uri":"test20.bin"}],"materials":[{"doubleSided":true,"extensions":{},"pbrMetallicRoughness":{"baseColorFactor":[0.730460286140442,0.141263484954834,0.0561284422874451,1],"metallicFactor":0,"roughnessFactor":0.150000005960464}}],"meshes":[{"extras":{"targetNames":[]},"primitives":[{"attributes":{"NORMAL":1,"POSITION":0},"indices":2,"material":0,"mode":4}]}],"nodes":[{"extensions":{},"mesh":0,"name":"GDExample"}],"scene":0,"scenes":[{"nodes":[0]}]}